<?xml version="1.0" ?><svg enable-background="new 0 0 32 32" version="1.1" viewBox="0 0 32 32" xml:space="preserve" xmlns="http://www.w3.org/2000/svg" xmlns:xlink="http://www.w3.org/1999/xlink"><g id="OUTLINE_copy"><g><path d="M18.886,8.455c0,0-3.464,0-4.65,0c-2.127,0-4.13,1.493-4.13,3.359c0,1.907,1.45,3.39,3.614,3.39    c0.151,0,0.297-0.034,0.441-0.045c-0.142,0.268-0.24,0.556-0.24,0.871c0,0.53,0.284,0.954,0.644,1.304    c-0.27,0-0.535,0.004-0.822,0.004c-2.635,0.001-4.664,1.678-4.664,3.418c0,1.714,2.224,2.788,4.859,2.788    c3.005,0,4.664-1.706,4.664-3.42c0-1.374-0.406-2.198-1.659-3.086c-0.429-0.303-1.249-1.041-1.249-1.476    c0-0.508,0.145-0.759,0.911-1.358c0.784-0.613,1.34-1.344,1.34-2.347c0-1.193-0.513-2.648-1.511-2.648h1.697L18.886,8.455z     M17.325,19.827c0.036,0.16,0.058,0.324,0.058,0.49c0,1.385-0.894,2.468-3.455,2.468c-1.822,0-3.137-1.153-3.137-2.538    c0-1.357,1.632-2.488,3.454-2.468c0.424,0.005,0.821,0.073,1.18,0.188C16.415,18.655,17.124,19.044,17.325,19.827z M14.407,14.66    c-1.223-0.035-2.385-1.368-2.596-2.972c-0.21-1.607,0.61-2.836,1.832-2.8c1.222,0.038,2.385,1.326,2.596,2.932    C16.45,13.425,15.63,14.696,14.407,14.66z" fill="#414752"/><polygon fill="#414752" points="22.658,14.485 22.658,12.222 21.149,12.222 21.149,14.485 18.886,14.485 18.886,15.994     21.149,15.994 21.149,18.257 22.658,18.257 22.658,15.994 24.921,15.994 24.921,14.485   "/></g><g><g id="Shopping_10_99_"><g><g><g><g><path d="M16,1c8.271,0,15,6.729,15,15s-6.729,15-15,15S1,24.271,1,16S7.729,1,16,1 M16,0         C7.164,0,0,7.163,0,16s7.164,16,16,16c8.837,0,16-7.163,16-16S24.836,0,16,0L16,0z" fill="#414752"/></g></g></g></g></g></g></g></svg>