<?xml version="1.0" encoding="UTF-8" standalone="no"?>
<svg
   xmlns:dc="http://purl.org/dc/elements/1.1/"
   xmlns:cc="http://creativecommons.org/ns#"
   xmlns:rdf="http://www.w3.org/1999/02/22-rdf-syntax-ns#"
   xmlns:svg="http://www.w3.org/2000/svg"
   xmlns="http://www.w3.org/2000/svg"
   viewBox="0 0 466.66666 200"
   height="200"
   width="466.66666"
   xml:space="preserve"
   id="svg2"
   version="1.1"><metadata
     id="metadata8"><rdf:RDF><cc:Work
         rdf:about=""><dc:format>image/svg+xml</dc:format><dc:type
           rdf:resource="http://purl.org/dc/dcmitype/StillImage" /></cc:Work></rdf:RDF></metadata><defs
     id="defs6"><clipPath
       id="clipPath18"
       clipPathUnits="userSpaceOnUse"><path
         id="path16"
         d="M 0,150 H 350 V 0 H 0 Z" /></clipPath><clipPath
       id="clipPath30"
       clipPathUnits="userSpaceOnUse"><path
         id="path28"
         d="M 6.55922,110.625 H 115.395 V 83.0804 H 6.55922 Z" /></clipPath><clipPath
       id="clipPath50"
       clipPathUnits="userSpaceOnUse"><path
         id="path48"
         d="M 29.9822,119.295 H 76.4668 V 104.324 H 29.9822 Z" /></clipPath><clipPath
       id="clipPath66"
       clipPathUnits="userSpaceOnUse"><path
         id="path64"
         d="M 29.9719,124.99 H 76.4771 V 111.069 H 29.9719 Z" /></clipPath><clipPath
       id="clipPath86"
       clipPathUnits="userSpaceOnUse"><path
         id="path84"
         d="M 4.25235,126.326 H 53.2245 V 101.26 H 4.25235 Z" /></clipPath><clipPath
       id="clipPath106"
       clipPathUnits="userSpaceOnUse"><path
         id="path104"
         d="M 4.25235,102.408 H 53.2245 V 77.3535 H 4.25235 Z" /></clipPath><clipPath
       id="clipPath126"
       clipPathUnits="userSpaceOnUse"><path
         id="path124"
         d="M 9.49425,121.082 H 47.986 V 82.5906 H 9.49425 Z" /></clipPath><clipPath
       id="clipPath166"
       clipPathUnits="userSpaceOnUse"><path
         id="path164"
         d="M 15.7327,114.843 H 41.7475 V 88.8291 H 15.7327 Z" /></clipPath><clipPath
       id="clipPath190"
       clipPathUnits="userSpaceOnUse"><path
         id="path188"
         d="M 64.2602,148.119 H 113.232 V 123.053 H 64.2602 Z" /></clipPath><clipPath
       id="clipPath210"
       clipPathUnits="userSpaceOnUse"><path
         id="path208"
         d="M 64.2602,124.201 H 113.232 V 99.1467 H 64.2602 Z" /></clipPath><clipPath
       id="clipPath230"
       clipPathUnits="userSpaceOnUse"><path
         id="path228"
         d="M 69.5021,142.875 H 107.994 V 104.384 H 69.5021 Z" /></clipPath><clipPath
       id="clipPath270"
       clipPathUnits="userSpaceOnUse"><path
         id="path268"
         d="M 75.7406,136.637 H 101.755 V 110.622 H 75.7406 Z" /></clipPath><clipPath
       id="clipPath346"
       clipPathUnits="userSpaceOnUse"><path
         id="path344"
         d="m 113.251,102.294 h 60.496 V 91.5789 h -60.496 z" /></clipPath><clipPath
       id="clipPath390"
       clipPathUnits="userSpaceOnUse"><path
         id="path388"
         d="M 0,150 H 350 V 0 H 0 Z" /></clipPath></defs><g
     transform="matrix(1.3333333,0,0,-1.3333333,0,200)"
     id="g10"><g
       id="g12"><g
         clip-path="url(#clipPath18)"
         id="g14"><g
           transform="translate(95.3914,51.0406)"
           id="g20"><path
             id="path22"
             style="fill:#a8a9a9;fill-opacity:1;fill-rule:nonzero;stroke:none"
             d="m 0,0 h -68.832 c -11,0 -20,9 -20,20 v 19.582 c 0,11 9,20 20,20 H 0 c 11,0 20,-9 20,-20 V 20 C 20,9 11,0 0,0" /></g><g
           id="g24"><g
             id="g26" /><g
             id="g38"><g
               id="g36"
               clip-path="url(#clipPath30)"><g
                 id="g34"
                 transform="translate(115.3952,87.6712)"><path
                   id="path32"
                   style="fill:#a8a9a9;fill-opacity:1;fill-rule:nonzero;stroke:none"
                   d="M 0,0 V -4.591 C 0,8.034 -10.329,18.363 -22.954,18.363 h -62.928 c -12.625,0 -22.954,-10.329 -22.954,-22.954 V 0 c 0,12.625 10.329,22.954 22.954,22.954 h 62.928 C -10.329,22.954 0,12.625 0,0" /></g></g></g></g><g
           transform="translate(76.4653,115.8954)"
           id="g40"><path
             id="path42"
             style="fill:#a8a9a9;fill-opacity:1;fill-rule:nonzero;stroke:none"
             d="m 0,0 c -15.494,0 -30.988,-11.247 -46.482,-11.247 0,3.124 0,6.248 0,9.372 15.494,0 30.988,11.248 46.482,11.248 z" /></g><g
           id="g44"><g
             id="g46" /><g
             id="g58"><g
               id="g56"
               clip-path="url(#clipPath50)"><g
                 id="g54"
                 transform="translate(76.2435,119.2953)"><path
                   id="path52"
                   style="fill:#a8a9a9;fill-opacity:1;fill-rule:nonzero;stroke:none"
                   d="m 0,0 c 0.074,-0.761 0.149,-1.522 0.223,-2.284 -15.42,-1.507 -30.841,-11.102 -46.261,-12.687 -0.074,0.761 -0.149,1.522 -0.223,2.284 C -30.841,-11.18 -15.42,-1.585 0,0" /></g></g></g></g><g
           id="g60"><g
             id="g62" /><g
             id="g74"><g
               id="g72"
               clip-path="url(#clipPath66)"><g
                 id="g70"
                 transform="translate(76.2775,124.9904)"><path
                   id="path68"
                   style="fill:#a8a9a9;fill-opacity:1;fill-rule:nonzero;stroke:none"
                   d="m 0,0 c 0.067,-0.762 0.133,-1.524 0.2,-2.286 -15.436,-1.347 -30.871,-10.224 -46.306,-11.635 -0.067,0.762 -0.133,1.524 -0.2,2.286 C -30.87,-10.288 -15.435,-1.412 0,0" /></g></g></g></g><g
           transform="translate(53.2243,101.8361)"
           id="g76"><path
             id="path78"
             style="fill:#a8a9a9;fill-opacity:1;fill-rule:nonzero;stroke:none"
             d="m 0,0 c 0,-13.522 -10.962,-24.484 -24.484,-24.484 -13.522,0 -24.484,10.962 -24.484,24.484 0,13.522 10.962,24.484 24.484,24.484 C -10.962,24.484 0,13.522 0,0" /></g><g
           id="g80"><g
             id="g82" /><g
             id="g94"><g
               id="g92"
               clip-path="url(#clipPath86)"><g
                 id="g90"
                 transform="translate(53.2245,101.8338)"><path
                   id="path88"
                   style="fill:#a8a9a9;fill-opacity:1;fill-rule:nonzero;stroke:none"
                   d="m 0,0 c 0,-0.195 0,-0.379 -0.011,-0.574 -0.299,13.256 -11.145,23.918 -24.469,23.918 -13.337,0 -24.182,-10.662 -24.481,-23.918 -0.011,0.195 -0.011,0.379 -0.011,0.574 0,13.52 10.96,24.492 24.492,24.492 C -10.96,24.492 0,13.52 0,0" /></g></g></g></g><g
           transform="translate(53.213,101.26)"
           id="g96"><path
             id="path98"
             style="fill:#a8a9a9;fill-opacity:1;fill-rule:nonzero;stroke:none"
             d="m 0,0 c -0.298,-13.256 -11.144,-23.907 -24.469,-23.907 -13.336,0 -24.182,10.651 -24.48,23.907 0.298,13.256 11.144,23.918 24.48,23.918 C -11.144,23.918 -0.298,13.256 0,0" /></g><g
           id="g100"><g
             id="g102" /><g
             id="g114"><g
               style="opacity:0.5"
               id="g112"
               clip-path="url(#clipPath106)"><g
                 id="g110"
                 transform="translate(53.2245,101.8338)"><path
                   id="path108"
                   style="fill:#a8a9a9;fill-opacity:1;fill-rule:nonzero;stroke:none"
                   d="m 0,0 c 0,-13.52 -10.96,-24.48 -24.48,-24.48 -13.532,0 -24.492,10.96 -24.492,24.48 0,0.195 0,0.379 0.011,0.574 0.299,-13.256 11.144,-23.907 24.481,-23.907 13.324,0 24.17,10.651 24.469,23.907 C 0,0.379 0,0.195 0,0" /></g></g></g></g><g
           transform="translate(28.7401,83.0906)"
           id="g116"><path
             id="path118"
             style="fill:none;stroke:#d1d1d2;stroke-width:1;stroke-linecap:butt;stroke-linejoin:miter;stroke-miterlimit:10;stroke-dasharray:none;stroke-opacity:1"
             d="m 0,0 c -10.337,0 -18.746,8.409 -18.746,18.745 0,10.337 8.409,18.746 18.746,18.746 10.337,0 18.746,-8.409 18.746,-18.746 C 18.746,8.409 10.337,0 0,0 Z" /></g><g
           id="g120"><g
             id="g122" /><g
             id="g134"><g
               id="g132"
               clip-path="url(#clipPath126)"><g
                 id="g130"
                 transform="translate(28.7401,83.0906)"><path
                   id="path128"
                   style="fill:none;stroke:#d1d1d2;stroke-width:1;stroke-linecap:butt;stroke-linejoin:miter;stroke-miterlimit:10;stroke-dasharray:none;stroke-opacity:1"
                   d="m 0,0 c -10.337,0 -18.746,8.409 -18.746,18.745 0,10.337 8.409,18.746 18.746,18.746 10.337,0 18.746,-8.409 18.746,-18.746 C 18.746,8.409 10.337,0 0,0 Z" /></g></g></g></g><g
           transform="translate(33.4026,113.9108)"
           id="g136"><path
             id="path138"
             style="fill:#ffffff;fill-opacity:1;fill-rule:nonzero;stroke:none"
             d="m 0,0 c 0,-2.575 -2.087,-4.663 -4.663,-4.663 -2.575,0 -4.662,2.088 -4.662,4.663 0,2.575 2.087,4.663 4.662,4.663 C -2.087,4.663 0,2.575 0,0" /></g><g
           transform="translate(43.7319,108.541)"
           id="g140"><path
             id="path142"
             style="fill:#ffffff;fill-opacity:1;fill-rule:nonzero;stroke:none"
             d="m 0,0 c 0,-2.575 -2.087,-4.663 -4.663,-4.663 -2.575,0 -4.662,2.088 -4.662,4.663 0,2.575 2.087,4.663 4.662,4.663 C -2.087,4.663 0,2.575 0,0" /></g><g
           transform="translate(44.8796,97.1736)"
           id="g144"><path
             id="path146"
             style="fill:#ffffff;fill-opacity:1;fill-rule:nonzero;stroke:none"
             d="m 0,0 c 0,-2.575 -2.087,-4.663 -4.663,-4.663 -2.575,0 -4.662,2.088 -4.662,4.663 0,2.575 2.087,4.663 4.662,4.663 C -2.087,4.663 0,2.575 0,0" /></g><g
           transform="translate(33.4026,89.8909)"
           id="g148"><path
             id="path150"
             style="fill:#ffffff;fill-opacity:1;fill-rule:nonzero;stroke:none"
             d="m 0,0 c 0,-2.575 -2.087,-4.663 -4.663,-4.663 -2.575,0 -4.662,2.088 -4.662,4.663 0,2.575 2.087,4.663 4.662,4.663 C -2.087,4.663 0,2.575 0,0" /></g><g
           transform="translate(22.004,97.5523)"
           id="g152"><path
             id="path154"
             style="fill:#ffffff;fill-opacity:1;fill-rule:nonzero;stroke:none"
             d="m 0,0 c 0,-2.575 -2.087,-4.663 -4.663,-4.663 -2.575,0 -4.662,2.088 -4.662,4.663 0,2.575 2.087,4.663 4.662,4.663 C -2.087,4.663 0,2.575 0,0" /></g><g
           transform="translate(23.2169,109.2483)"
           id="g156"><path
             id="path158"
             style="fill:#ffffff;fill-opacity:1;fill-rule:nonzero;stroke:none"
             d="m 0,0 c 0,-2.575 -2.087,-4.663 -4.663,-4.663 -2.575,0 -4.662,2.088 -4.662,4.663 0,2.575 2.087,4.663 4.662,4.663 C -2.087,4.663 0,2.575 0,0" /></g><g
           id="g160"><g
             id="g162" /><g
             id="g174"><g
               style="opacity:0.5"
               id="g172"
               clip-path="url(#clipPath166)"><g
                 id="g170"
                 transform="translate(28.7401,88.8291)"><path
                   id="path168"
                   style="fill:#787777;fill-opacity:1;fill-rule:nonzero;stroke:none"
                   d="m 0,0 c -7.173,0 -13.007,5.835 -13.007,13.007 0,7.172 5.834,13.007 13.007,13.007 7.173,0 13.007,-5.835 13.007,-13.007 C 13.007,5.835 7.173,0 0,0" /></g></g></g></g><g
           transform="translate(32.7571,101.5731)"
           id="g176"><path
             id="path178"
             style="fill:#ffffff;fill-opacity:1;fill-rule:nonzero;stroke:none"
             d="m 0,0 c 0,-2.1 -1.702,-3.802 -3.802,-3.802 -2.099,0 -3.801,1.702 -3.801,3.802 0,2.1 1.702,3.802 3.801,3.802 C -1.702,3.802 0,2.1 0,0" /></g><g
           transform="translate(113.2322,123.6294)"
           id="g180"><path
             id="path182"
             style="fill:#a8a9a9;fill-opacity:1;fill-rule:nonzero;stroke:none"
             d="m 0,0 c 0,-13.522 -10.962,-24.484 -24.484,-24.484 -13.522,0 -24.484,10.962 -24.484,24.484 0,13.522 10.962,24.484 24.484,24.484 C -10.962,24.484 0,13.522 0,0" /></g><g
           id="g184"><g
             id="g186" /><g
             id="g198"><g
               id="g196"
               clip-path="url(#clipPath190)"><g
                 id="g194"
                 transform="translate(113.2323,123.6271)"><path
                   id="path192"
                   style="fill:#a8a9a9;fill-opacity:1;fill-rule:nonzero;stroke:none"
                   d="m 0,0 c 0,-0.195 0,-0.379 -0.011,-0.574 -0.299,13.256 -11.145,23.918 -24.469,23.918 -13.337,0 -24.182,-10.662 -24.481,-23.918 -0.011,0.195 -0.011,0.379 -0.011,0.574 0,13.52 10.96,24.492 24.492,24.492 C -10.96,24.492 0,13.52 0,0" /></g></g></g></g><g
           transform="translate(113.2209,123.0533)"
           id="g200"><path
             id="path202"
             style="fill:#a8a9a9;fill-opacity:1;fill-rule:nonzero;stroke:none"
             d="m 0,0 c -0.298,-13.256 -11.144,-23.907 -24.469,-23.907 -13.336,0 -24.182,10.651 -24.48,23.907 0.298,13.256 11.144,23.918 24.48,23.918 C -11.144,23.918 -0.298,13.256 0,0" /></g><g
           id="g204"><g
             id="g206" /><g
             id="g218"><g
               style="opacity:0.5"
               id="g216"
               clip-path="url(#clipPath210)"><g
                 id="g214"
                 transform="translate(113.2323,123.6271)"><path
                   id="path212"
                   style="fill:#a8a9a9;fill-opacity:1;fill-rule:nonzero;stroke:none"
                   d="m 0,0 c 0,-13.52 -10.96,-24.48 -24.48,-24.48 -13.532,0 -24.492,10.96 -24.492,24.48 0,0.195 0,0.379 0.011,0.574 0.299,-13.256 11.144,-23.907 24.481,-23.907 13.324,0 24.17,10.651 24.469,23.907 C 0,0.379 0,0.195 0,0" /></g></g></g></g><g
           transform="translate(88.748,104.8839)"
           id="g220"><path
             id="path222"
             style="fill:none;stroke:#d1d1d2;stroke-width:1;stroke-linecap:butt;stroke-linejoin:miter;stroke-miterlimit:10;stroke-dasharray:none;stroke-opacity:1"
             d="m 0,0 c -10.337,0 -18.746,8.409 -18.746,18.745 0,10.337 8.409,18.746 18.746,18.746 10.337,0 18.746,-8.409 18.746,-18.746 C 18.746,8.409 10.337,0 0,0 Z" /></g><g
           id="g224"><g
             id="g226" /><g
             id="g238"><g
               id="g236"
               clip-path="url(#clipPath230)"><g
                 id="g234"
                 transform="translate(88.748,104.8839)"><path
                   id="path232"
                   style="fill:none;stroke:#d1d1d2;stroke-width:1;stroke-linecap:butt;stroke-linejoin:miter;stroke-miterlimit:10;stroke-dasharray:none;stroke-opacity:1"
                   d="m 0,0 c -10.337,0 -18.746,8.409 -18.746,18.745 0,10.337 8.409,18.746 18.746,18.746 10.337,0 18.746,-8.409 18.746,-18.746 C 18.746,8.409 10.337,0 0,0 Z" /></g></g></g></g><g
           transform="translate(93.4105,135.7041)"
           id="g240"><path
             id="path242"
             style="fill:#ffffff;fill-opacity:1;fill-rule:nonzero;stroke:none"
             d="m 0,0 c 0,-2.575 -2.087,-4.663 -4.663,-4.663 -2.575,0 -4.662,2.088 -4.662,4.663 0,2.575 2.087,4.663 4.662,4.663 C -2.087,4.663 0,2.575 0,0" /></g><g
           transform="translate(103.7398,130.3343)"
           id="g244"><path
             id="path246"
             style="fill:#ffffff;fill-opacity:1;fill-rule:nonzero;stroke:none"
             d="m 0,0 c 0,-2.575 -2.087,-4.663 -4.663,-4.663 -2.575,0 -4.662,2.088 -4.662,4.663 0,2.575 2.087,4.663 4.662,4.663 C -2.087,4.663 0,2.575 0,0" /></g><g
           transform="translate(104.8875,118.9669)"
           id="g248"><path
             id="path250"
             style="fill:#ffffff;fill-opacity:1;fill-rule:nonzero;stroke:none"
             d="m 0,0 c 0,-2.575 -2.087,-4.663 -4.663,-4.663 -2.575,0 -4.662,2.088 -4.662,4.663 0,2.575 2.087,4.663 4.662,4.663 C -2.087,4.663 0,2.575 0,0" /></g><g
           transform="translate(93.4105,111.6842)"
           id="g252"><path
             id="path254"
             style="fill:#ffffff;fill-opacity:1;fill-rule:nonzero;stroke:none"
             d="m 0,0 c 0,-2.575 -2.087,-4.663 -4.663,-4.663 -2.575,0 -4.662,2.088 -4.662,4.663 0,2.575 2.087,4.663 4.662,4.663 C -2.087,4.663 0,2.575 0,0" /></g><g
           transform="translate(82.0119,119.3456)"
           id="g256"><path
             id="path258"
             style="fill:#ffffff;fill-opacity:1;fill-rule:nonzero;stroke:none"
             d="m 0,0 c 0,-2.575 -2.087,-4.663 -4.663,-4.663 -2.575,0 -4.662,2.088 -4.662,4.663 0,2.575 2.087,4.663 4.662,4.663 C -2.087,4.663 0,2.575 0,0" /></g><g
           transform="translate(83.2247,131.0416)"
           id="g260"><path
             id="path262"
             style="fill:#ffffff;fill-opacity:1;fill-rule:nonzero;stroke:none"
             d="m 0,0 c 0,-2.575 -2.087,-4.663 -4.663,-4.663 -2.575,0 -4.662,2.088 -4.662,4.663 0,2.575 2.087,4.663 4.662,4.663 C -2.087,4.663 0,2.575 0,0" /></g><g
           id="g264"><g
             id="g266" /><g
             id="g278"><g
               style="opacity:0.5"
               id="g276"
               clip-path="url(#clipPath270)"><g
                 id="g274"
                 transform="translate(88.748,110.6224)"><path
                   id="path272"
                   style="fill:#787777;fill-opacity:1;fill-rule:nonzero;stroke:none"
                   d="m 0,0 c -7.173,0 -13.007,5.835 -13.007,13.007 0,7.172 5.834,13.007 13.007,13.007 7.173,0 13.007,-5.835 13.007,-13.007 C 13.007,5.835 7.173,0 0,0" /></g></g></g></g><g
           transform="translate(92.7649,123.3664)"
           id="g280"><path
             id="path282"
             style="fill:#ffffff;fill-opacity:1;fill-rule:nonzero;stroke:none"
             d="m 0,0 c 0,-2.1 -1.702,-3.802 -3.802,-3.802 -2.099,0 -3.801,1.702 -3.801,3.802 0,2.1 1.702,3.802 3.801,3.802 C -1.702,3.802 0,2.1 0,0" /></g><g
           transform="translate(107.6099,67.6363)"
           id="g284"><path
             id="path286"
             style="fill:#5b5959;fill-opacity:1;fill-rule:nonzero;stroke:none"
             d="m 0,0 c 0,-7.288 -5.908,-13.195 -13.195,-13.195 -7.288,0 -13.195,5.907 -13.195,13.195 0,7.288 5.907,13.195 13.195,13.195 C -5.908,13.195 0,7.288 0,0" /></g><g
           transform="translate(69.2867,54.8663)"
           id="g288"><path
             id="path290"
             style="fill:#5b5959;fill-opacity:1;fill-rule:nonzero;stroke:none"
             d="m 0,0 h -45.887 c -4.217,0 -7.667,3.45 -7.667,7.667 v 2.264 c 0,4.217 3.45,7.667 7.667,7.667 H 0 c 4.217,0 7.667,-3.45 7.667,-7.667 V 7.667 C 7.667,3.45 4.217,0 0,0" /></g><g
           transform="translate(32.7571,62.0035)"
           id="g292"><path
             id="path294"
             style="fill:#ffffff;fill-opacity:1;fill-rule:nonzero;stroke:none"
             d="m 0,0 c 0,-2.397 -1.943,-4.34 -4.34,-4.34 -2.396,0 -4.339,1.943 -4.339,4.34 0,2.397 1.943,4.34 4.339,4.34 C -1.943,4.34 0,2.397 0,0" /></g><g
           transform="translate(45.3817,62.0035)"
           id="g296"><path
             id="path298"
             style="fill:#2775aa;fill-opacity:1;fill-rule:nonzero;stroke:none"
             d="m 0,0 c 0,-2.397 -1.943,-4.34 -4.34,-4.34 -2.396,0 -4.339,1.943 -4.339,4.34 0,2.397 1.943,4.34 4.339,4.34 C -1.943,4.34 0,2.397 0,0" /></g><g
           transform="translate(58.0064,62.0035)"
           id="g300"><path
             id="path302"
             style="fill:#45120c;fill-opacity:1;fill-rule:nonzero;stroke:none"
             d="m 0,0 c 0,-2.397 -1.943,-4.34 -4.34,-4.34 -2.396,0 -4.339,1.943 -4.339,4.34 0,2.397 1.943,4.34 4.339,4.34 C -1.943,4.34 0,2.397 0,0" /></g><g
           transform="translate(70.631,62.0035)"
           id="g304"><path
             id="path306"
             style="fill:#7f7f80;fill-opacity:1;fill-rule:nonzero;stroke:none"
             d="m 0,0 c 0,-2.397 -1.943,-4.34 -4.34,-4.34 -2.396,0 -4.339,1.943 -4.339,4.34 0,2.397 1.943,4.34 4.339,4.34 C -1.943,4.34 0,2.397 0,0" /></g><g
           transform="translate(99.5147,67.2638)"
           id="g308"><path
             id="path310"
             style="fill:#ffffff;fill-opacity:1;fill-rule:nonzero;stroke:none"
             d="m 0,0 c 0,-2.767 -2.243,-5.009 -5.009,-5.009 -2.767,0 -5.009,2.242 -5.009,5.009 0,2.767 2.242,5.009 5.009,5.009 C -2.243,5.009 0,2.767 0,0" /></g><g
           transform="translate(60.5163,77.3798)"
           id="g312"><path
             id="path314"
             style="fill:#5b5959;fill-opacity:1;fill-rule:nonzero;stroke:none"
             d="m 0,0 h -0.424 c -0.789,0 -1.435,0.646 -1.435,1.435 v 24.336 c 0,0.789 0.646,1.435 1.435,1.435 H 0 c 0.789,0 1.435,-0.646 1.435,-1.435 V 1.435 C 1.435,0.646 0.789,0 0,0" /></g><g
           transform="translate(66.5033,77.3798)"
           id="g316"><path
             id="path318"
             style="fill:#5b5959;fill-opacity:1;fill-rule:nonzero;stroke:none"
             d="m 0,0 h -0.424 c -0.789,0 -1.435,0.646 -1.435,1.435 v 24.336 c 0,0.789 0.646,1.435 1.435,1.435 H 0 c 0.789,0 1.435,-0.646 1.435,-1.435 V 1.435 C 1.435,0.646 0.789,0 0,0" /></g><g
           transform="translate(71.4937,77.3798)"
           id="g320"><path
             id="path322"
             style="fill:#5b5959;fill-opacity:1;fill-rule:nonzero;stroke:none"
             d="m 0,0 h -0.424 c -0.789,0 -1.435,0.646 -1.435,1.435 v 24.336 c 0,0.789 0.646,1.435 1.435,1.435 H 0 c 0.789,0 1.435,-0.646 1.435,-1.435 V 1.435 C 1.435,0.646 0.789,0 0,0" /></g><g
           transform="translate(175,45.5512)"
           id="g324"><path
             id="path326"
             style="fill:#5b5959;fill-opacity:1;fill-rule:nonzero;stroke:none"
             d="M 0,0 C -20.929,10.636 -42.751,13.587 -63.68,16.833 V 52.794 C -42.751,53.079 -20.929,54.974 0,63.601 0,42.401 0,21.201 0,0" /></g><g
           transform="translate(350,2.75)"
           id="g328"><path
             id="path330"
             style="fill:#ffffff;fill-opacity:1;fill-rule:nonzero;stroke:none"
             d="m 0,0 -175,42.801 v 63.602 L 0,147.25 Z" /></g><g
           transform="translate(350,14)"
           id="g332"><path
             id="path334"
             style="fill:#fefad9;fill-opacity:1;fill-rule:nonzero;stroke:none"
             d="M 0,0 -175,36.624 V 91.047 L 0,126 Z" /></g><g
           transform="translate(350,21.6667)"
           id="g336"><path
             id="path338"
             style="fill:#ffffff;fill-opacity:1;fill-rule:nonzero;stroke:none"
             d="M 0,0 -175,32.061 V 79.703 L 0,110.3 Z" /></g><g
           id="g340"><g
             id="g342" /><g
             id="g354"><g
               id="g352"
               clip-path="url(#clipPath346)"><g
                 id="g350"
                 transform="translate(171.1238,92.1994)"><path
                   id="path348"
                   style="fill:#a8a9a9;fill-opacity:1;fill-rule:nonzero;stroke:none"
                   d="m 0,0 c -18.959,-1.217 -37.972,-0.643 -56.787,1.711 -0.362,0.787 -0.724,1.574 -1.085,2.361 C -38.95,3.46 -18.598,5.357 2.624,10.095 1.749,6.73 0.875,3.365 0,0" /></g></g></g></g><g
           transform="translate(117.1667,61.523)"
           id="g356"><path
             id="path358"
             style="fill:#000000;fill-opacity:1;fill-rule:nonzero;stroke:none"
             d="m 0,0 h -5.179 c -0.55,0 -1,0.45 -1,1 v 35.375 c 0,0.55 0.45,1 1,1 H 0 c 0.55,0 1,-0.45 1,-1 V 1 C 1,0.45 0.55,0 0,0" /></g><g
           transform="translate(223.4365,82.0806)"
           id="g360"><path
             id="path362"
             style="fill:#000000;fill-opacity:1;fill-rule:nonzero;stroke:none"
             d="M 0,0 -8.851,16.576 V 1.846 c 0,-0.364 0.082,-0.639 0.247,-0.826 0.164,-0.188 0.457,-0.34 0.878,-0.458 V 0 h -7.048 v 0.562 c 0.421,0.118 0.714,0.27 0.878,0.458 0.165,0.187 0.247,0.462 0.247,0.826 v 20.32 c 0,0.352 -0.082,0.621 -0.247,0.809 -0.164,0.187 -0.457,0.339 -0.878,0.457 v 0.562 h 9.249 v -0.562 c -0.551,-0.141 -0.827,-0.463 -0.827,-0.967 0,-0.235 0.082,-0.504 0.247,-0.809 L 0.439,9.253 7.073,21.445 c 0.293,0.539 0.44,0.932 0.44,1.178 0,0.481 -0.293,0.75 -0.879,0.809 v 0.562 h 9.072 v -0.562 c -0.422,-0.118 -0.715,-0.27 -0.879,-0.457 -0.164,-0.188 -0.246,-0.457 -0.246,-0.809 V 1.846 c 0,-0.364 0.082,-0.639 0.246,-0.826 0.164,-0.188 0.457,-0.34 0.879,-0.458 V 0 H 8.218 v 0.562 c 0.41,0.106 0.7,0.255 0.87,0.449 0.17,0.193 0.255,0.471 0.255,0.835 v 14.73 z" /></g><g
           transform="translate(256.6592,102.4185)"
           id="g364"><path
             id="path366"
             style="fill:#000000;fill-opacity:1;fill-rule:nonzero;stroke:none"
             d="m 0,0 c -2.288,0 -4.194,-0.679 -5.719,-2.037 -1.806,-1.604 -2.71,-3.705 -2.71,-6.304 0,-2.598 0.904,-4.7 2.71,-6.304 1.525,-1.358 3.444,-2.037 5.754,-2.037 2.311,0 4.224,0.679 5.736,2.037 0.904,0.808 1.596,1.797 2.077,2.968 0.423,1.042 0.633,2.118 0.633,3.231 0,2.716 -0.903,4.852 -2.71,6.409 C 4.234,-0.703 2.311,-0.023 0,0 m -0.018,4.078 c 4.187,0 7.505,-1.131 9.956,-3.392 2.591,-2.368 3.887,-5.426 3.887,-9.176 0,-2.297 -0.621,-4.442 -1.864,-6.434 -2.428,-3.89 -6.409,-5.836 -11.943,-5.836 -4.152,0 -7.453,1.131 -9.903,3.393 -1.313,1.207 -2.31,2.654 -2.99,4.342 -0.599,1.488 -0.897,3.052 -0.897,4.693 0,2.402 0.615,4.6 1.846,6.592 2.358,3.808 6.326,5.748 11.908,5.818" /></g><g
           transform="translate(284.626,89.0557)"
           id="g368"><path
             id="path370"
             style="fill:#000000;fill-opacity:1;fill-rule:nonzero;stroke:none"
             d="m 0,0 6.367,14.083 c 0.27,0.598 0.404,1.061 0.404,1.389 0,0.504 -0.386,0.832 -1.16,0.985 v 0.562 h 8.214 V 16.457 C 13.31,16.386 12.951,16.24 12.752,16.017 12.553,15.794 12.207,15.15 11.715,14.083 L 3.395,-3.864 c -0.352,-0.761 -0.528,-1.26 -0.528,-1.494 0,-0.598 0.369,-0.949 1.108,-1.055 v -0.562 h -8.266 v 0.562 c 0.738,0.106 1.107,0.463 1.107,1.073 0,0.222 -0.175,0.715 -0.527,1.476 l -8.32,17.947 c -0.492,1.067 -0.838,1.711 -1.037,1.934 -0.201,0.223 -0.558,0.369 -1.074,0.44 v 0.562 h 8.525 v -0.562 c -0.774,-0.153 -1.16,-0.481 -1.16,-0.985 0,-0.328 0.133,-0.791 0.404,-1.389 z" /></g><g
           transform="translate(301.6152,83.9263)"
           id="g372"><path
             id="path374"
             style="fill:#000000;fill-opacity:1;fill-rule:nonzero;stroke:none"
             d="m 0,0 v 20.32 c 0,0.352 -0.082,0.621 -0.246,0.809 -0.164,0.187 -0.457,0.34 -0.879,0.457 v 0.562 H 6.363 V 21.586 C 5.941,21.48 5.648,21.331 5.484,21.138 5.32,20.944 5.238,20.672 5.238,20.32 V 0 c 0,-0.363 0.085,-0.642 0.255,-0.835 0.17,-0.193 0.46,-0.343 0.87,-0.448 v -0.563 h -7.488 v 0.563 c 0.422,0.117 0.715,0.269 0.879,0.457 C -0.082,-0.639 0,-0.363 0,0" /></g><g
           transform="translate(318.6484,92.6099)"
           id="g376"><path
             id="path378"
             style="fill:#000000;fill-opacity:1;fill-rule:nonzero;stroke:none"
             d="m 0,0 v -6.574 h 15.434 c 0.351,0 0.621,0.082 0.808,0.246 0.188,0.164 0.34,0.457 0.457,0.879 h 0.563 v -6.205 h -0.563 c -0.117,0.422 -0.269,0.715 -0.457,0.879 -0.187,0.164 -0.457,0.246 -0.808,0.246 H -6.363 v 0.562 c 0.422,0.117 0.715,0.27 0.879,0.457 0.164,0.188 0.246,0.463 0.246,0.826 v 20.303 c 0,0.363 -0.082,0.639 -0.246,0.826 -0.164,0.188 -0.457,0.34 -0.879,0.457 v 0.563 h 21.375 c 0.351,0 0.621,0.083 0.808,0.251 0.188,0.167 0.34,0.458 0.457,0.874 H 16.84 V 8.385 H 16.277 C 16.16,8.801 16.008,9.093 15.82,9.26 15.633,9.426 15.363,9.51 15.012,9.51 H 0 V 3.814 h 9.738 c 0.352,0 0.621,0.082 0.809,0.247 0.187,0.164 0.34,0.457 0.457,0.878 h 0.562 v -6.064 h -0.562 c -0.117,0.41 -0.27,0.7 -0.457,0.87 C 10.359,-0.085 10.09,0 9.738,0 Z" /></g></g></g><text
       id="text382"
       style="font-variant:normal;font-weight:normal;font-stretch:normal;font-size:24px;font-family:'Copperplate Gothic Bold';-inkscape-font-specification:CopperplateGothic-Bold;writing-mode:lr-tb;fill:#231f20;fill-opacity:1;fill-rule:nonzero;stroke:none"
       transform="matrix(1,0,0,-1,216.9897,56.6201)"><tspan
         id="tspan380"
         y="0"
         x="0 23.184 42.695999 63.624001 71.496002">MANIA</tspan></text>
<g
       id="g384"><g
         clip-path="url(#clipPath390)"
         id="g386"><path
           id="path392"
           style="fill:#231f20;fill-opacity:1;fill-rule:nonzero;stroke:none"
           d="M 334.082,77.352 H 205.875 V 79 h 128.207 z" /></g></g></g></svg>
