<?xml version="1.0" ?><svg enable-background="new 0 0 32 32" version="1.1" viewBox="0 0 32 32" xml:space="preserve" xmlns="http://www.w3.org/2000/svg" xmlns:xlink="http://www.w3.org/1999/xlink"><g id="OUTLINE_copy"><g><g><path d="M20.599,18.747c-0.13,0-0.224,0.037-0.281,0.114c-0.057,0.073-0.084,0.198-0.084,0.373v0.419h0.722     v-0.419c0-0.174-0.029-0.299-0.087-0.373C20.815,18.783,20.723,18.747,20.599,18.747z" fill="#414752"/><path d="M17.783,18.732c-0.059,0-0.117,0.012-0.173,0.04c-0.057,0.027-0.113,0.07-0.168,0.127v2.588     c0.066,0.066,0.131,0.117,0.194,0.146c0.063,0.029,0.128,0.045,0.197,0.045c0.1,0,0.173-0.029,0.22-0.088     c0.047-0.058,0.072-0.152,0.072-0.286v-2.145c0-0.14-0.029-0.247-0.087-0.319C17.978,18.768,17.892,18.732,17.783,18.732z" fill="#414752"/><path d="M22.321,15.512c-0.671-0.67-6.324-0.679-6.324-0.679c0,0-5.652,0.008-6.325,0.678     C9,16.183,8.998,19.496,8.998,19.515c0,0.025,0.001,3.332,0.674,4.004c0.672,0.67,6.325,0.684,6.325,0.684     s5.653-0.014,6.324-0.684c0.675-0.673,0.681-4.004,0.681-4.004C23.002,19.497,22.995,16.184,22.321,15.512z M13.309,17.465     h-0.952v4.813h-0.921v-4.813h-0.952v-0.818h2.825V17.465z M16,22.277h-0.815V21.82c-0.152,0.169-0.308,0.298-0.472,0.385     c-0.163,0.089-0.321,0.132-0.475,0.132c-0.19,0-0.33-0.06-0.427-0.185c-0.094-0.124-0.143-0.308-0.143-0.556v-3.473h0.816v3.186     c0,0.099,0.017,0.169,0.05,0.214c0.036,0.044,0.092,0.066,0.168,0.066c0.06,0,0.137-0.029,0.228-0.088     c0.092-0.058,0.175-0.132,0.254-0.222v-3.156H16V22.277z M18.964,21.419c0,0.294-0.064,0.519-0.192,0.676     c-0.127,0.157-0.313,0.234-0.555,0.234c-0.161,0-0.302-0.029-0.427-0.09c-0.125-0.06-0.243-0.153-0.349-0.281v0.319h-0.825     v-5.631h0.825v1.813c0.111-0.126,0.227-0.224,0.35-0.289c0.125-0.066,0.25-0.099,0.377-0.099c0.259,0,0.456,0.088,0.592,0.264     c0.138,0.177,0.205,0.437,0.205,0.777V21.419z M21.796,20.301h-1.562v0.781c0,0.219,0.027,0.371,0.08,0.456     c0.055,0.085,0.146,0.126,0.277,0.126c0.135,0,0.23-0.036,0.284-0.107c0.053-0.072,0.082-0.229,0.082-0.474v-0.19h0.84v0.213     c0,0.426-0.102,0.747-0.307,0.964c-0.204,0.215-0.51,0.322-0.916,0.322c-0.365,0-0.654-0.113-0.864-0.342     c-0.21-0.227-0.316-0.541-0.316-0.942v-1.865c0-0.359,0.117-0.654,0.347-0.881c0.231-0.227,0.528-0.34,0.894-0.34     c0.374,0,0.661,0.105,0.862,0.315c0.201,0.21,0.3,0.511,0.3,0.906V20.301z" fill="#414752"/></g><path d="M20.595,13.091h-0.92v-0.505c-0.168,0.186-0.344,0.329-0.529,0.425c-0.183,0.097-0.361,0.146-0.533,0.146    c-0.214,0-0.373-0.068-0.481-0.205c-0.107-0.136-0.161-0.34-0.161-0.614V8.515h0.918v3.508c0,0.108,0.021,0.187,0.059,0.235    c0.037,0.049,0.101,0.073,0.187,0.073c0.067,0,0.153-0.032,0.256-0.096c0.103-0.064,0.198-0.146,0.283-0.247V8.515h0.92    L20.595,13.091L20.595,13.091z" fill="#414752"/><path d="M16.862,8.732c-0.244-0.222-0.556-0.333-0.936-0.333c-0.417,0-0.751,0.105-0.998,0.315    c-0.248,0.21-0.372,0.492-0.372,0.847v2.372c0,0.389,0.121,0.698,0.361,0.928c0.242,0.229,0.564,0.344,0.966,0.344    c0.418,0,0.745-0.111,0.986-0.334c0.237-0.223,0.357-0.53,0.357-0.921V9.588C17.225,9.239,17.103,8.954,16.862,8.732z     M16.288,12.02c0,0.122-0.037,0.218-0.11,0.289c-0.074,0.069-0.172,0.104-0.297,0.104c-0.122,0-0.216-0.034-0.281-0.102    c-0.065-0.07-0.099-0.166-0.099-0.291V9.527c0-0.1,0.036-0.181,0.105-0.243c0.071-0.061,0.161-0.092,0.274-0.092    c0.121,0,0.219,0.03,0.294,0.092c0.075,0.062,0.113,0.143,0.113,0.243V12.02z" fill="#414752"/><polygon fill="#414752" points="12.051,6.888 11.008,6.888 12.241,10.634 12.241,13.091 13.276,13.091 13.276,10.518     14.481,6.888 13.428,6.888 12.789,9.368 12.724,9.368   "/></g><g><g id="Shopping_10_112_"><g><g><g><g><path d="M16,1c8.271,0,15,6.729,15,15s-6.729,15-15,15S1,24.271,1,16S7.729,1,16,1 M16,0         C7.163,0,0,7.164,0,16c0,8.836,7.163,16,16,16s16-7.164,16-16C32,7.164,24.837,0,16,0L16,0z" fill="#414752"/></g></g></g></g></g></g></g></svg>